<?xml version="1.0" encoding="UTF-8"?>
<svg width="192px" height="41px" viewBox="0 0 192 41" version="1.1" xmlns="http://www.w3.org/2000/svg" xmlns:xlink="http://www.w3.org/1999/xlink">
    <!-- Generator: Sketch 64 (93537) - https://sketch.com -->
    <title>reiki-lab_logo-type-white</title>
    <desc>Created with Sketch.</desc>
    <g id="Page-1" stroke="none" stroke-width="1" fill="none" fill-rule="evenodd">
        <g id="Desktop-HD" transform="translate(-297.000000, -44.000000)" fill="#FFFFFF" fill-rule="nonzero">
            <g id="reiki-lab_logo-type-white" transform="translate(297.000000, 44.000000)">
                <path d="M0.553191489,17.6022727 C0.553191489,15.3011364 0.502901354,13.0511364 0.402321083,10.8011364 C0.301740812,8.60227273 0.201160542,6.30113636 0.100580271,4 C1.10638298,4.05113636 2.06189555,4.15340909 3.01740812,4.20454545 C3.9729207,4.25568182 4.9787234,4.30681818 5.93423598,4.30681818 C6.94003868,4.30681818 7.89555126,4.25568182 8.85106383,4.15340909 C9.8065764,4.05113636 10.8123791,4 11.7678917,4 C13.2263056,4 14.5841393,4.15340909 15.8916828,4.40909091 C17.1992263,4.66477273 18.3558994,5.17613636 19.311412,5.78977273 C20.2669246,6.45454545 21.0715667,7.27272727 21.6247582,8.34659091 C22.1779497,9.36931818 22.4796905,10.6988636 22.4796905,12.2840909 C22.4796905,13.9715909 22.1276596,15.4034091 21.3733075,16.5795455 C20.6189555,17.8068182 19.7137331,18.7784091 18.6576402,19.5454545 C17.6015474,20.3125 16.4448743,20.9261364 15.237911,21.3863636 C14.0309478,21.8465909 12.9245648,22.1022727 11.9187621,22.2556818 C12.3210832,22.7670455 12.8742747,23.5340909 13.6286267,24.4545455 C14.3326886,25.375 15.1373308,26.4488636 16.0425532,27.5738636 C16.9477756,28.6988636 17.8529981,29.875 18.8085106,31.1534091 C19.7640232,32.3806818 20.7195358,33.5568182 21.5744681,34.7329545 C22.4796905,35.8579545 23.2843327,36.9318182 24.0889749,37.8522727 C24.893617,38.7727273 25.4970986,39.4886364 26,40 C25.4970986,39.9488636 24.9941973,39.8977273 24.4410058,39.8977273 C23.9381044,39.8977273 23.4352031,39.8977273 22.8820116,39.8977273 C22.3791103,39.8977273 21.926499,39.8977273 21.3733075,39.8977273 C20.8704062,39.8977273 20.3675048,39.9488636 19.8646035,40 C19.3617021,39.2840909 18.55706,38.1590909 17.5009671,36.6761364 C16.4448743,35.1931818 15.2882012,33.6590909 14.0309478,31.9715909 C12.7736944,30.2840909 11.4661509,28.6477273 10.1586074,26.9602273 C8.85106383,25.3238636 7.64410058,23.8920455 6.5377176,22.7670455 L4.57640232,22.7670455 L4.57640232,26.6022727 C4.57640232,28.9034091 4.62669246,31.1534091 4.72727273,33.4034091 C4.827853,35.6534091 4.92843327,37.8522727 5.02901354,40 C4.22437137,39.9488636 3.41972921,39.8977273 2.51450677,39.8977273 C1.60928433,39.8977273 0.804642166,39.9488636 0,40 C0.100580271,37.8522727 0.201160542,35.6534091 0.301740812,33.4034091 C0.402321083,31.1534091 0.452611219,28.9034091 0.452611219,26.6022727 L0.452611219,17.6022727 L0.553191489,17.6022727 Z M4.77756286,20.6193182 C5.28046422,20.7215909 5.78336557,20.7727273 6.33655706,20.8238636 C6.88974855,20.875 7.54352031,20.875 8.19729207,20.875 C9.25338491,20.875 10.3597679,20.7727273 11.516441,20.5170455 C12.6731141,20.2613636 13.729207,19.8522727 14.6847195,19.2386364 C15.6402321,18.625 16.4448743,17.8068182 17.098646,16.7840909 C17.7524178,15.7613636 18.0541586,14.4318182 18.0541586,12.8977273 C18.0541586,11.5170455 17.8027079,10.3920455 17.2998066,9.52272727 C16.7969052,8.65340909 16.1431335,7.9375 15.3887814,7.42613636 C14.5841393,6.91477273 13.729207,6.55681818 12.8239845,6.35227273 C11.9187621,6.14772727 10.9632495,6.04545455 10.1083172,6.04545455 C8.90135397,6.04545455 7.89555126,6.09659091 7.14119923,6.14772727 C6.33655706,6.19886364 5.6827853,6.25 5.12959381,6.35227273 C5.07930368,8.29545455 4.9787234,10.1875 4.92843327,12.0795455 C4.87814313,13.9715909 4.827853,15.8636364 4.827853,17.7556818 L4.827853,20.6193182 L4.77756286,20.6193182 Z" id="Shape"></path>
                <path d="M27,28.8735178 C27,24.5573123 28.0290828,21.1660079 30.0872483,18.6996047 C32.1454139,16.2332016 35.1297539,15 39.0917226,15 C40.9440716,15 42.5391499,15.3083004 43.9284116,15.8735178 C45.2662192,16.4387352 46.3982103,17.2094862 47.3243848,18.1857708 C48.2505593,19.1620553 48.9194631,20.2924901 49.3310962,21.5770751 C49.7941834,22.8616601 50,24.2490119 50,25.7391304 C50,26.0988142 50,26.4071146 49.9485459,26.7667984 C49.9485459,27.0750988 49.8970917,27.4347826 49.8456376,27.7944664 C47.9418345,27.743083 46.0894855,27.743083 44.1856823,27.6916996 C42.3333333,27.6403162 40.4295302,27.6403162 38.5257271,27.6403162 C37.3422819,27.6403162 36.2102908,27.6403162 35.0782998,27.6916996 C33.9463087,27.743083 32.7628635,27.743083 31.6308725,27.7944664 C31.5794183,27.9486166 31.5794183,28.256917 31.5794183,28.5652174 L31.5794183,29.2332016 C31.5794183,30.6205534 31.7852349,31.9051383 32.196868,33.0869565 C32.6085011,34.2687747 33.1744966,35.2964427 33.9463087,36.1699605 C34.7181208,37.0434783 35.6442953,37.7114625 36.7762864,38.2252964 C37.9082774,38.7391304 39.1946309,38.9960474 40.6868009,38.9960474 C41.4071588,38.9960474 42.1275168,38.8932806 42.8478747,38.687747 C43.5682327,38.4822134 44.2885906,38.2252964 45.0089485,37.916996 C45.7293065,37.6086957 46.3467562,37.1976285 46.9642058,36.7351779 C47.5816555,36.2727273 48.0961969,35.8102767 48.5592841,35.2450593 L48.8165548,35.3992095 L48.50783,37.9683794 C47.4787472,38.7905138 46.1409396,39.5098814 44.5973154,40.1264822 C43.0536913,40.743083 41.4071588,41 39.7091723,41 C37.8053691,41 36.0559284,40.6916996 34.5123043,40.1264822 C32.9686801,39.5612648 31.5794183,38.687747 30.4474273,37.6086957 C29.3154362,36.4782609 28.4407159,35.1936759 27.8232662,33.7035573 C27.3087248,32.2648221 27,30.6205534 27,28.8735178 Z M39.1946309,16.7470356 C37.9082774,16.7470356 36.7762864,17.055336 35.901566,17.6205534 C35.0268456,18.2371542 34.2550336,18.9565217 33.689038,19.8814229 C33.1230425,20.7549407 32.6599553,21.7826087 32.3512304,22.8102767 C32.0425056,23.8893281 31.8881432,24.8656126 31.7852349,25.8418972 C32.8657718,25.8932806 33.9977629,25.8932806 35.1812081,25.944664 C36.3646532,25.9960474 37.4966443,25.9960474 38.6286353,25.9960474 C39.8120805,25.9960474 40.9440716,25.9960474 42.1789709,25.944664 C43.3624161,25.8932806 44.5458613,25.8932806 45.6778523,25.8418972 C45.6778523,24.916996 45.5749441,23.8893281 45.4205817,22.8616601 C45.2662192,21.8339921 44.9574944,20.8063241 44.4944072,19.9328063 C44.0313199,19.0079051 43.3624161,18.2885375 42.5391499,17.6719368 C41.6644295,17.0039526 40.5838926,16.7470356 39.1946309,16.7470356 Z" id="Shape"></path>
                <path d="M55,5.67966574 C55,4.95821727 55.2403846,4.28830084 55.7211538,3.7729805 C56.2019231,3.25766017 56.8269231,3 57.5,3 C58.1730769,3 58.7980769,3.25766017 59.2788462,3.7729805 C59.7596154,4.28830084 60,4.95821727 60,5.67966574 C60,6.40111421 59.7596154,7.07103064 59.2788462,7.58635097 C58.7980769,8.10167131 58.1730769,8.35933148 57.5,8.35933148 C56.8269231,8.35933148 56.2019231,8.10167131 55.7211538,7.58635097 C55.2403846,7.07103064 55,6.40111421 55,5.67966574 Z M55.6730769,24.7465181 C55.6730769,23.1490251 55.625,21.5 55.5769231,19.7479109 C55.5288462,17.9958217 55.4326923,16.3983287 55.2403846,14.8523677 C56.1538462,15.0069638 56.875,15.1100279 57.4519231,15.1100279 C58.0288462,15.1100279 58.75,15.0069638 59.6634615,14.8523677 C59.5192308,16.3467967 59.375,17.9958217 59.3269231,19.7479109 C59.2788462,21.5 59.2307692,23.1490251 59.2307692,24.7465181 L59.2307692,30.2604457 C59.2307692,31.8579387 59.2788462,33.5069638 59.3269231,35.2590529 C59.375,37.0111421 59.4711538,38.5571031 59.6634615,40 C58.8942308,39.948468 58.1730769,39.8969359 57.4519231,39.8969359 C56.7307692,39.8969359 56.0096154,39.948468 55.2403846,40 C55.3846154,38.6086351 55.5288462,37.0111421 55.5769231,35.2590529 C55.625,33.5069638 55.6730769,31.8579387 55.6730769,30.2604457 L55.6730769,24.7465181 L55.6730769,24.7465181 Z" id="Shape"></path>
                <path d="M65.5176471,11.3766234 C65.5176471,9.97402597 65.4658824,8.57142857 65.4141176,7.16883117 C65.3623529,5.76623377 65.3105882,4.46753247 65.2588235,3.22077922 C65.2070588,1.97402597 65.1552941,0.883116883 65.0517647,0 C66.0352941,0.155844156 66.8117647,0.25974026 67.4329412,0.25974026 C68.0541176,0.25974026 68.8305882,0.155844156 69.8141176,0 C69.7623529,0.883116883 69.6588235,1.97402597 69.6070588,3.22077922 C69.5552941,4.46753247 69.5035294,5.81818182 69.4517647,7.16883117 C69.4,8.57142857 69.4,9.97402597 69.3482353,11.3766234 C69.3482353,12.7792208 69.2964706,14.1298701 69.2964706,15.3246753 L69.2964706,24.987013 C69.2964706,25.6623377 69.5035294,25.974026 69.9176471,25.974026 C70.1764706,25.974026 70.4870588,25.8701299 70.8494118,25.6103896 C71.16,25.3506494 71.5741176,25.0909091 71.9882353,24.7792208 C72.2988235,24.5194805 72.8682353,24.0519481 73.5929412,23.3246753 C74.3694118,22.5974026 75.1976471,21.7662338 76.1294118,20.8311688 C77.0611765,19.8961039 78.0447059,18.9090909 79.0282353,17.8181818 C80.0117647,16.7792208 80.9435294,15.7402597 81.72,14.8051948 C82.4447059,14.961039 83.1176471,15.0649351 83.7388235,15.0649351 C84.1529412,15.0649351 84.5152941,15.012987 84.9294118,14.961039 C85.3435294,14.9090909 85.8094118,14.8571429 86.4305882,14.7532468 C84.2047059,16.5714286 82.0823529,18.3376623 80.0635294,20.1038961 C78.0447059,21.8701299 76.0776471,23.6363636 74.2658824,25.4545455 C76.2847059,27.8961039 78.3552941,30.3376623 80.4776471,32.7792208 C82.6,35.2207792 84.7741176,37.6623377 87,40 C86.3788235,39.9480519 85.8611765,39.8961039 85.3952941,39.8961039 C84.9294118,39.8961039 84.4635294,39.8961039 83.9976471,39.8961039 C83.5835294,39.8961039 83.1694118,39.8961039 82.7035294,39.8961039 C82.2376471,39.8961039 81.7717647,39.9480519 81.2541176,40 C80.4776471,39.1168831 79.5976471,38.0779221 78.6141176,36.8831169 C77.6305882,35.6883117 76.6470588,34.4935065 75.6635294,33.3506494 C74.68,32.1558442 73.7482353,31.0649351 72.8682353,30.025974 C71.9882353,28.987013 71.2117647,28.1558442 70.5905882,27.4805195 C70.4870588,27.3246753 70.3835294,27.2207792 70.2282353,27.1168831 C70.0729412,27.012987 69.9694118,26.961039 69.8141176,26.961039 C69.4517647,26.961039 69.2964706,27.1688312 69.2964706,27.5844156 L69.2964706,30.7532468 C69.2964706,32.3636364 69.3482353,33.9220779 69.4,35.4285714 C69.4517647,36.9350649 69.5552941,38.4415584 69.7623529,40 C68.9341176,39.9480519 68.1576471,39.8961039 67.3811765,39.8961039 C66.6047059,39.8961039 65.8282353,39.9480519 65,40 C65.0517647,39.1688312 65.1552941,38.1818182 65.2070588,36.9350649 C65.2588235,35.6883117 65.3105882,34.3896104 65.3623529,32.987013 C65.4141176,31.5844156 65.4141176,30.1818182 65.4658824,28.7792208 C65.4658824,27.3766234 65.5176471,26.025974 65.5176471,24.8311688 L65.5176471,15.2727273 C65.5176471,14.0779221 65.5176471,12.7792208 65.5176471,11.3766234 Z" id="Path"></path>
                <path d="M91,5.67966574 C91,4.95821727 91.2403846,4.28830084 91.7211538,3.7729805 C92.2019231,3.25766017 92.8269231,3 93.5,3 C94.1730769,3 94.7980769,3.25766017 95.2788462,3.7729805 C95.7596154,4.28830084 96,4.95821727 96,5.67966574 C96,6.40111421 95.7596154,7.07103064 95.2788462,7.58635097 C94.7980769,8.10167131 94.1730769,8.35933148 93.5,8.35933148 C92.8269231,8.35933148 92.2019231,8.10167131 91.7211538,7.58635097 C91.2403846,7.07103064 91,6.40111421 91,5.67966574 Z M91.6730769,24.7465181 C91.6730769,23.1490251 91.625,21.5 91.5769231,19.7479109 C91.5288462,17.9958217 91.4326923,16.3983287 91.2403846,14.8523677 C92.1538462,15.0069638 92.875,15.1100279 93.4519231,15.1100279 C94.0288462,15.1100279 94.75,15.0069638 95.6634615,14.8523677 C95.5192308,16.3467967 95.375,17.9958217 95.3269231,19.7479109 C95.2788462,21.5 95.2307692,23.1490251 95.2307692,24.7465181 L95.2307692,30.2604457 C95.2307692,31.8579387 95.2788462,33.5069638 95.3269231,35.2590529 C95.375,37.0111421 95.4711538,38.5571031 95.6634615,40 C94.8942308,39.948468 94.1730769,39.8969359 93.4519231,39.8969359 C92.7307692,39.8969359 92.0096154,39.948468 91.2403846,40 C91.3846154,38.6086351 91.5288462,37.0111421 91.5769231,35.2590529 C91.625,33.5069638 91.6730769,31.8579387 91.6730769,30.2604457 L91.6730769,24.7465181 Z" id="Shape"></path>
                <path d="M118.31746,10.8011364 C118.21164,8.60227273 118.10582,6.30113636 118,4 C118.47619,4.05113636 118.899471,4.15340909 119.375661,4.20454545 C119.798942,4.25568182 120.222222,4.30681818 120.698413,4.30681818 C121.121693,4.30681818 121.544974,4.25568182 122.021164,4.20454545 C122.444444,4.15340909 122.920635,4.10227273 123.396825,4 C123.291005,6.30113636 123.185185,8.55113636 123.079365,10.8011364 C122.973545,13 122.920635,15.3011364 122.920635,17.6022727 C122.920635,22 122.920635,25.8352273 122.973545,29.0568182 C123.026455,32.2784091 123.026455,35.1931818 123.079365,37.6988636 C125.619048,37.6988636 128.10582,37.6477273 130.433862,37.5965909 C132.761905,37.5454545 135.301587,37.3409091 138,36.9829545 C137.84127,37.5965909 137.73545,38.1590909 137.73545,38.5681818 C137.73545,38.9772727 137.84127,39.4375 138,40 C136.359788,39.9488636 134.666667,39.8977273 133.026455,39.8977273 C131.386243,39.8977273 129.693122,39.8977273 128.05291,39.8977273 C126.306878,39.8977273 124.666667,39.8977273 123.026455,39.8977273 C121.439153,39.8977273 119.746032,39.9488636 118,40 C118.10582,37.8522727 118.21164,35.6534091 118.31746,33.4034091 C118.42328,31.1534091 118.47619,28.9034091 118.47619,26.6022727 L118.47619,17.5511364 C118.42328,15.25 118.37037,13 118.31746,10.8011364 Z" id="Path"></path>
                <path d="M144.184758,18.0376238 C145.759815,16.8534653 147.182448,16.029703 148.503464,15.6178218 C149.82448,15.2059406 151.196305,15 152.568129,15 C153.838337,15 154.95612,15.2059406 156.023095,15.5663366 C157.039261,15.9267327 157.953811,16.4415842 158.665127,17.1623762 C159.376443,17.8831683 159.986143,18.6554455 160.39261,19.6336634 C160.799076,20.6118812 161.002309,21.6415842 161.002309,22.8257426 C161.002309,24.8336634 160.951501,26.8415842 160.900693,28.7980198 C160.849885,30.8059406 160.799076,32.8653465 160.799076,35.0792079 C160.799076,35.4910891 160.799076,35.9544554 160.849885,36.4178218 C160.849885,36.8811881 160.951501,37.2930693 161.103926,37.7049505 C161.256351,38.0653465 161.459584,38.3742574 161.713626,38.6316832 C161.967667,38.8891089 162.374134,38.9920792 162.882217,38.9920792 C163.034642,38.9920792 163.237875,38.9920792 163.441109,38.9405941 C163.644342,38.9405941 163.796767,38.8376238 164,38.7346535 L164,39.9188119 C163.593533,40.0732673 163.136259,40.2277228 162.577367,40.3306931 C162.018476,40.4336634 161.357968,40.4851485 160.69746,40.4851485 C159.579677,40.4851485 158.715935,40.1762376 158.157044,39.609901 C157.547344,39.0435644 157.242494,38.2712871 157.140878,37.3445545 C155.87067,38.6316832 154.65127,39.5584158 153.431871,40.1247525 C152.212471,40.7425743 150.73903,41 148.960739,41 C148.096998,41 147.233256,40.8970297 146.420323,40.639604 C145.60739,40.3821782 144.845266,39.970297 144.184758,39.4039604 C143.524249,38.8376238 143.016166,38.1683168 142.6097,37.3960396 C142.203233,36.6237624 142,35.6970297 142,34.6673267 C142,32.5564356 142.660508,30.9089109 143.930716,29.7762376 C145.251732,28.5920792 147.030023,27.819802 149.316397,27.4594059 C151.196305,27.150495 152.669746,26.8930693 153.736721,26.6356436 C154.803695,26.429703 155.56582,26.1722772 156.073903,25.9148515 C156.581986,25.6574257 156.886836,25.4 156.988453,25.039604 C157.090069,24.7306931 157.140878,24.2673267 157.140878,23.7524752 C157.140878,22.8772277 157.039261,22.0534653 156.836028,21.229703 C156.632794,20.4059406 156.277136,19.7366337 155.87067,19.1188119 C155.413395,18.5009901 154.854503,18.0376238 154.092379,17.6772277 C153.381062,17.3168317 152.466513,17.1108911 151.450346,17.1108911 C150.078522,17.1108911 148.757506,17.419802 147.588915,18.0376238 C146.369515,18.6554455 145.505774,19.5306931 144.896074,20.6633663 L144.337182,20.6633663 L144.337182,18.0376238 L144.184758,18.0376238 Z M157.039261,27.4594059 C156.429561,27.6653465 155.769053,27.8712871 155.006928,27.9742574 C154.244804,28.1287129 153.431871,28.2831683 152.618938,28.4376238 C151.806005,28.5920792 151.04388,28.7980198 150.230947,29.0554455 C149.468822,29.3128713 148.757506,29.6217822 148.147806,30.0336634 C147.538106,30.4455446 147.030023,30.960396 146.674365,31.629703 C146.318707,32.2990099 146.166282,33.019802 146.166282,34.049505 C146.166282,35.6970297 146.623557,36.9326733 147.588915,37.8079208 C148.503464,38.6316832 149.570439,39.0950495 150.688222,39.0950495 C152.009238,39.0950495 153.228637,38.7346535 154.295612,37.9623762 C155.413395,37.2415842 156.226328,36.3663366 156.836028,35.3881188 L157.039261,27.4594059 Z" id="Shape"></path>
                <path d="M192,27.0892857 C192,29.1811224 191.692964,31.0637755 191.078891,32.7895408 C190.464819,34.5153061 189.646055,35.9795918 188.571429,37.182398 C187.496802,38.4375 186.268657,39.3788265 184.784648,40.0063776 C183.351812,40.6862245 181.765458,41 180.076759,41 C178.38806,41 176.904051,40.6339286 175.522388,39.9017857 C174.191898,39.1696429 173.168443,38.2806122 172.452026,37.2346939 C171.172708,38.2806122 170.046908,39.3265306 168.921109,40.3201531 L168,40.3201531 C168.051173,39.4834184 168.153518,38.4375 168.204691,37.2346939 C168.255864,36.0318878 168.307036,34.7244898 168.358209,33.3647959 C168.409382,32.005102 168.409382,30.5931122 168.460554,29.1811224 C168.460554,27.7691327 168.511727,26.4094388 168.511727,25.2066327 L168.511727,15.4795918 C168.511727,14.2767857 168.511727,12.9693878 168.460554,11.505102 C168.460554,10.0931122 168.409382,8.68112245 168.358209,7.26913265 C168.307036,5.85714286 168.255864,4.5497449 168.204691,3.29464286 C168.153518,2.03954082 168.102345,0.941326531 168,0.0522959184 C168.972281,0.209183673 169.739872,0.31377551 170.353945,0.31377551 C170.763326,0.31377551 171.121535,0.261479592 171.58209,0.209183673 C171.991471,0.156887755 172.452026,0.104591837 172.963753,0 C172.861407,0.732142857 172.759062,1.83035714 172.707889,3.39923469 C172.656716,4.96811224 172.605544,6.69387755 172.554371,8.57653061 C172.503198,10.5114796 172.503198,12.4464286 172.452026,14.4859694 C172.400853,16.5255102 172.400853,18.3558673 172.34968,19.9770408 L172.452026,19.9770408 C173.628998,18.0420918 174.959488,16.630102 176.392324,15.7410714 C177.82516,14.8520408 179.462687,14.3813776 181.356077,14.3813776 C183.147122,14.3813776 184.733475,14.747449 186.063966,15.4272959 C187.394456,16.1071429 188.469083,17.0484694 189.390192,18.1989796 C190.260128,19.3494898 190.925373,20.6568878 191.334755,22.1734694 C191.795309,23.7946429 192,25.3635204 192,27.0892857 Z M187.394456,26.880102 C187.394456,25.2589286 187.189765,23.7946429 186.780384,22.5395408 C186.371002,21.2844388 185.859275,20.1862245 185.19403,19.3494898 C184.528785,18.5127551 183.812367,17.8329082 182.942431,17.4145408 C182.072495,16.9438776 181.202559,16.7346939 180.28145,16.7346939 C179.206823,16.7346939 178.183369,16.9438776 177.159915,17.3622449 C176.187633,17.7806122 175.317697,18.4604592 174.550107,19.4017857 C173.833689,20.3431122 173.219616,21.5982143 172.810235,23.1147959 C172.34968,24.6313776 172.144989,26.5140306 172.144989,28.7104592 C172.144989,35.875 174.703625,39.4834184 179.820896,39.4834184 C180.895522,39.4834184 181.918977,39.1696429 182.788913,38.5943878 C183.710021,38.0191327 184.477612,37.182398 185.19403,36.0318878 C185.910448,34.8813776 186.422175,33.6262755 186.780384,32.057398 C187.189765,30.4885204 187.394456,28.815051 187.394456,26.880102 Z" id="Shape"></path>
            </g>
        </g>
    </g>
</svg>