<?xml version="1.0" encoding="UTF-8"?>
<svg width="91px" height="64px" viewBox="0 0 91 64" version="1.1" xmlns="http://www.w3.org/2000/svg" xmlns:xlink="http://www.w3.org/1999/xlink">
    <!-- Generator: Sketch 64 (93537) - https://sketch.com -->
    <title>envelope</title>
    <desc>Created with Sketch.</desc>
    <g id="Page-1" stroke="none" stroke-width="1" fill="none" fill-rule="evenodd">
        <g id="Desktop-HD" transform="translate(-670.000000, -2497.000000)" fill="#43569F" fill-rule="nonzero">
            <g id="envelope" transform="translate(670.000000, 2497.000000)">
                <path d="M90.488764,1.76377953 C90.488764,1.51181102 90.488764,1.51181102 90.488764,1.51181102 C90.488764,1.51181102 90.488764,1.25984252 90.2331461,1.25984252 C90.2331461,1.25984252 90.2331461,1.25984252 90.2331461,1.00787402 C90.2331461,1.00787402 90.2331461,1.00787402 90.2331461,1.00787402 C90.2331461,1.00787402 89.9775281,0.755905512 89.9775281,0.755905512 C89.9775281,0.755905512 89.7219101,0.503937008 89.7219101,0.503937008 C89.7219101,0.503937008 89.4662921,0.503937008 89.4662921,0.503937008 C89.2106742,0.503937008 89.2106742,0.503937008 88.9550562,0.503937008 C88.9550562,0.503937008 88.9550562,0.503937008 88.6994382,0.503937008 L1.78932584,0.503937008 C1.78932584,0.503937008 1.78932584,0.503937008 1.53370787,0.503937008 C1.27808989,0 1.27808989,0 1.02247191,0 C1.02247191,0 0.766853933,0 0.766853933,0 C0.766853933,0 0.511235955,0 0.511235955,0.251968504 C0.511235955,0.251968504 0.255617978,0.503937008 0.255617978,0.503937008 C0.255617978,0.503937008 0.255617978,0.503937008 0.255617978,0.503937008 C0.255617978,0.503937008 0.255617978,0.503937008 0.255617978,0.755905512 C0.255617978,0.755905512 0.255617978,1.00787402 0,1.00787402 C0,1.00787402 0,1.25984252 0,1.25984252 C0,1.25984252 0,1.25984252 0,1.51181102 L0,61.984252 C0,62.992126 0.766853933,64 2.04494382,64 L88.9550562,64 C89.9775281,64 91,63.2440945 91,61.984252 L90.488764,1.76377953 C90.488764,1.76377953 90.488764,1.76377953 90.488764,1.76377953 Z M45.244382,29.7322835 L7.66853933,3.77952756 L82.5646067,3.77952756 L45.244382,29.7322835 Z M3.57865169,60.4724409 L3.57865169,5.54330709 L33.997191,26.7086614 L13.2921348,45.8582677 C12.5252809,46.6141732 12.5252809,47.8740157 13.2921348,48.6299213 C13.5477528,49.1338583 14.0589888,49.1338583 14.5702247,49.1338583 C15.0814607,49.1338583 15.5926966,48.8818898 15.8483146,48.6299213 L37.0646067,28.976378 L43.9662921,33.7637795 C44.2219101,34.015748 44.7331461,34.015748 44.988764,34.015748 C45.244382,34.015748 45.755618,34.015748 46.011236,33.7637795 L52.9129213,28.976378 L74.1292135,48.6299213 C74.3848315,48.8818898 74.8960674,49.1338583 75.4073034,49.1338583 C75.9185393,49.1338583 76.4297753,48.8818898 76.6853933,48.6299213 C77.4522472,47.8740157 77.4522472,46.6141732 76.6853933,45.8582677 L55.9803371,26.7086614 L86.6544944,5.54330709 L86.6544944,60.4724409 L3.57865169,60.4724409 Z" id="Shape"></path>
            </g>
        </g>
    </g>
</svg>