<?xml version="1.0" encoding="UTF-8"?>
<svg width="46px" height="46px" viewBox="0 0 46 46" version="1.1" xmlns="http://www.w3.org/2000/svg" xmlns:xlink="http://www.w3.org/1999/xlink">
    <!-- Generator: Sketch 64 (93537) - https://sketch.com -->
    <title>Group 4</title>
    <desc>Created with Sketch.</desc>
    <g id="Page-1" stroke="none" stroke-width="1" fill="none" fill-rule="evenodd">
        <g id="Desktop-HD" transform="translate(-1117.000000, -3391.000000)">
            <g id="Group-4" transform="translate(1117.000000, 3391.000000)">
                <rect id="Rectangle" fill="#E74A77" x="0" y="0" width="46" height="46"></rect>
                <g id="arrow-up" transform="translate(8.000000, 8.000000)" fill="#FFFFFF" fill-rule="nonzero">
                    <path d="M2.00984883,17.8195514 L0.484425103,16.2835621 C-0.161475034,15.6331883 -0.161475034,14.5815199 0.484425103,13.9380649 L13.8353184,0.487780382 C14.4812185,-0.162593461 15.5256528,-0.162593461 16.1646816,0.487780382 L29.5155749,13.9311461 C30.161475,14.5815199 30.161475,15.6331883 29.5155749,16.2766432 L27.9901512,17.8126325 C27.3373798,18.4699252 26.2723317,18.4560875 25.6333028,17.784957 L17.7519469,9.45463676 L17.7519469,29.339471 C17.7519469,30.2596808 17.0167201,31 16.1028401,31 L13.9040311,31 C12.9901512,31 12.2549244,30.2596808 12.2549244,29.339471 L12.2549244,9.45463676 L4.36669721,17.7918759 C3.72766835,18.4699252 2.66262025,18.483763 2.00984883,17.8195514 Z" id="Path"></path>
                </g>
            </g>
        </g>
    </g>
</svg>