<?xml version="1.0" encoding="UTF-8"?>
<svg width="41px" height="41px" viewBox="0 0 41 41" version="1.1" xmlns="http://www.w3.org/2000/svg" xmlns:xlink="http://www.w3.org/1999/xlink">
    <!-- Generator: Sketch 64 (93537) - https://sketch.com -->
    <title>Group 3</title>
    <desc>Created with Sketch.</desc>
    <defs>
        <polygon id="path-1" points="0 0 41 0 41 41 0 41"></polygon>
    </defs>
    <g id="Page-1" stroke="none" stroke-width="1" fill="none" fill-rule="evenodd">
        <g id="Desktop-HD" transform="translate(-675.000000, -3311.000000)">
            <g id="Group-3" transform="translate(675.000000, 3311.000000)">
                <mask id="mask-2" fill="white">
                    <use xlink:href="#path-1"></use>
                </mask>
                <g id="Clip-2"></g>
                <path d="M36.6071272,0 L4.39243569,0 C1.96676225,0 0,1.96674129 0,4.39282592 L0,36.6071741 C0,39.0332587 1.96676225,41 4.39243569,41 L16.9534906,41 L16.9534906,27.0606119 L11.1878178,27.0606119 L11.1878178,20.5 L16.9534906,20.5 L16.9534906,15.4996695 C16.9534906,9.81141669 20.3398181,6.66987528 25.5259517,6.66987528 C28.0101909,6.66987528 30.6071912,7.1126106 30.6071912,7.1126106 L30.6071912,12.6955335 L27.7453336,12.6955335 C24.9258707,12.6955335 24.0460723,14.4450592 24.0460723,16.2396013 L24.0460723,20.5 L30.3410227,20.5 L29.3340404,27.0606119 L24.0460723,27.0606119 L24.0460723,41 L36.6071272,41 C39.0332377,41 41,39.0332587 41,36.6071741 L41,4.39282592 C41,1.96674129 39.0332377,0 36.6071272,0" id="Fill-1" fill="#43569F" mask="url(#mask-2)"></path>
            </g>
        </g>
    </g>
</svg>