<?xml version="1.0" encoding="UTF-8"?>
<svg width="24px" height="23px" viewBox="0 0 24 23" version="1.1" xmlns="http://www.w3.org/2000/svg" xmlns:xlink="http://www.w3.org/1999/xlink">
    <!-- Generator: Sketch 64 (93537) - https://sketch.com -->
    <title>Group 6</title>
    <desc>Created with Sketch.</desc>
    <g id="Page-1" stroke="none" stroke-width="1" fill="none" fill-rule="evenodd">
        <g id="Volunteers-Page" transform="translate(-777.000000, -979.000000)" fill="#FFFFFF">
            <g id="Group-6" transform="translate(777.000000, 979.000000)">
                <path d="M4.64879357,2.15625 C3.29171046,2.15625 2.18766756,3.2444375 2.18766756,4.58203125 L2.18766756,18.3421406 C2.18766756,19.6797344 3.29171046,20.7679219 4.64879357,20.7679219 L18.6086649,20.7679219 C19.965748,20.7679219 21.0697909,19.6797344 21.0697909,18.3421406 L21.0697909,4.58203125 C21.0697909,3.2444375 19.965748,2.15625 18.6086649,2.15625 L4.64879357,2.15625 Z M18.6086649,22.9241719 L4.64879357,22.9241719 C2.08557641,22.9241719 -3.7658765e-13,20.8685469 -3.7658765e-13,18.3421406 L-3.7658765e-13,4.58203125 C-3.7658765e-13,2.055625 2.08557641,-2.13162821e-14 4.64879357,-2.13162821e-14 L18.6086649,-2.13162821e-14 C21.171882,-2.13162821e-14 23.2574584,2.055625 23.2574584,4.58203125 L23.2574584,18.3421406 C23.2574584,20.8685469 21.171882,22.9241719 18.6086649,22.9241719 L18.6086649,22.9241719 Z" id="Fill-8-Copy"></path>
                <path d="M12.4542198,8.15625 C10.6530402,8.15625 9.18766756,9.60057813 9.18766756,11.3758906 C9.18766756,13.1512031 10.6530402,14.5955313 12.4542198,14.5955313 C14.2553995,14.5955313 15.7207721,13.1512031 15.7207721,11.3758906 C15.7207721,9.60057813 14.2553995,8.15625 12.4542198,8.15625 M12.4542198,16.7517813 C9.44690617,16.7517813 7,14.340375 7,11.3758906 C7,8.41176563 9.44690617,6 12.4542198,6 C15.4615335,6 17.9084397,8.41176563 17.9084397,11.3758906 C17.9084397,14.340375 15.4615335,16.7517813 12.4542198,16.7517813" id="Fill-10-Copy"></path>
                <path d="M11.5670992,9 C12.4297694,9 13.1338338,9.69359375 13.1338338,10.5442344 C13.1338338,11.3941562 12.4297694,12.0884687 11.5670992,12.0884687 C10.704429,12.0884687 10,11.3941562 10,10.5442344 C10,9.69359375 10.704429,9 11.5670992,9" id="Fill-12-Copy"></path>
            </g>
        </g>
    </g>
</svg>