<?xml version="1.0" encoding="UTF-8"?>
<svg width="21px" height="21px" viewBox="0 0 21 21" version="1.1" xmlns="http://www.w3.org/2000/svg" xmlns:xlink="http://www.w3.org/1999/xlink">
    <!-- Generator: Sketch 64 (93537) - https://sketch.com -->
    <title>Fill 4 Copy 3</title>
    <desc>Created with Sketch.</desc>
    <g id="Page-1" stroke="none" stroke-width="1" fill="none" fill-rule="evenodd">
        <g id="Volunteers-Page" transform="translate(-373.000000, -1538.000000)" fill="#FFFFFF">
            <path d="M385.308182,1545.38048 C385.065716,1545.32047 384.762359,1545.26081 384.368214,1545.26081 C382.367592,1545.26081 380.791013,1547.20287 380.791013,1549.50395 C380.791013,1550.63922 381.306209,1551.35617 382.307067,1551.35617 C383.428611,1551.35617 384.611046,1549.95209 384.883775,1548.21919 L385.308182,1545.38048 Z M388.005941,1557.72034 C386.18726,1558.5275 384.611046,1558.79667 382.458745,1558.79667 C377.426016,1558.79667 373,1555.24066 373,1549.38428 C373,1543.28892 377.486906,1538 384.337952,1538 C389.673308,1538 393.492976,1541.61567 393.492976,1546.63542 C393.492976,1550.99752 391.007056,1553.74673 387.732847,1553.74673 C386.308311,1553.74673 385.27792,1553.02978 385.126241,1551.44602 L385.065716,1551.44602 C384.125748,1552.96977 382.761737,1553.74673 381.154895,1553.74673 C379.184536,1553.74673 377.76,1552.31247 377.76,1549.86261 C377.76,1546.21675 380.488021,1542.90044 384.853147,1542.90044 C386.18726,1542.90044 387.702584,1543.22891 388.460976,1543.64722 L387.551271,1549.17548 C387.248279,1550.93786 387.460483,1551.74466 388.308933,1551.77448 C389.612783,1551.80467 391.249887,1550.16125 391.249887,1546.72491 C391.249887,1542.84078 388.703442,1539.82275 384.004697,1539.82275 C379.366113,1539.82275 375.304343,1543.40823 375.304343,1549.11511 C375.304343,1554.10503 378.547925,1556.94373 383.065094,1556.94373 C384.611046,1556.94373 386.247786,1556.61527 387.460483,1555.9878 L388.005941,1557.72034 Z" id="Fill-4-Copy-3"></path>
        </g>
    </g>
</svg>