<?xml version="1.0" encoding="UTF-8"?>
<svg width="11px" height="22px" viewBox="0 0 11 22" version="1.1" xmlns="http://www.w3.org/2000/svg" xmlns:xlink="http://www.w3.org/1999/xlink">
    <!-- Generator: Sketch 64 (93537) - https://sketch.com -->
    <title>Fill 6 Copy 3</title>
    <desc>Created with Sketch.</desc>
    <g id="Page-1" stroke="none" stroke-width="1" fill="none" fill-rule="evenodd">
        <g id="Volunteers-Page" transform="translate(-435.000000, -1537.000000)" fill="#FFFFFF">
            <path d="M436.940097,1558.54345 L436.940097,1547.27884 L435,1547.27884 L435,1543.93234 L436.940097,1543.93234 L436.940097,1543.36453 C436.940097,1541.6018 437.48592,1539.65973 438.819668,1538.46409 C439.971839,1537.38884 441.578681,1537 442.912429,1537 C443.94355,1537 444.731475,1537.11967 445.367721,1537.299 L445.18578,1540.79464 C444.792,1540.67533 444.306702,1540.58584 443.700354,1540.58584 C442.185029,1540.58584 441.548783,1541.75094 441.548783,1543.18556 L441.548783,1543.93234 L444.518906,1543.93234 L444.518906,1547.27884 L441.578681,1547.27884 L441.578681,1558.54345 L436.940097,1558.54345 Z" id="Fill-6-Copy-3"></path>
        </g>
    </g>
</svg>