<?xml version="1.0" encoding="UTF-8"?>
<svg width="42px" height="42px" viewBox="0 0 42 42" version="1.1" xmlns="http://www.w3.org/2000/svg" xmlns:xlink="http://www.w3.org/1999/xlink">
    <!-- Generator: Sketch 64 (93537) - https://sketch.com -->
    <title>Group 3</title>
    <desc>Created with Sketch.</desc>
    <defs>
        <polygon id="path-1" points="0 0 42 0 42 42 0 42"></polygon>
    </defs>
    <g id="Page-1" stroke="none" stroke-width="1" fill="none" fill-rule="evenodd">
        <g id="Desktop-HD" transform="translate(-729.000000, -3311.000000)">
            <g id="Group-3" transform="translate(729.000000, 3311.000000)">
                <mask id="mask-2" fill="white">
                    <use xlink:href="#path-1"></use>
                </mask>
                <g id="Clip-2"></g>
                <path d="M37.3736549,33.3802659 C36.6429439,35.2170897 35.2280582,36.6323033 33.3822633,37.3725827 C30.6182694,38.4691271 24.0593211,38.2162505 21.0044747,38.2162505 C17.9500756,38.2162505 11.3821781,38.4597281 8.62713345,37.3725827 C6.79073533,36.6412547 5.37584965,35.2264886 4.63574183,33.3802659 C3.53945154,30.6151838 3.79271697,24.0551629 3.79271697,21.0000559 C3.79271697,17.9445014 3.54884831,11.374634 4.63574183,8.61939839 C5.36645288,6.78257464 6.78133856,5.36736102 8.62713345,4.62708166 C11.3915749,3.53053727 17.9500756,3.78341383 21.0044747,3.78341383 C24.0593211,3.78341383 30.6272187,3.53993622 33.3822633,4.62708166 C35.2186614,5.35840964 36.6335471,6.77317569 37.3736549,8.61939839 C38.4699452,11.384033 38.2171273,17.9445014 38.2171273,21.0000559 C38.2171273,24.0551629 38.4699452,30.6250303 37.3736549,33.3802659 M41.8523364,12.3400407 C41.6930387,8.97566343 40.9247406,5.99530052 38.4605485,3.53993622 C36.0057531,1.08457192 33.0260808,0.316095705 29.6624832,0.147362139 C26.1955211,-0.0491207131 15.8044789,-0.0491207131 12.3375168,0.147362139 C8.98331593,0.306696753 6.00409111,1.07517297 3.53945154,3.53053727 C1.07525942,5.98590157 0.316358058,8.96626448 0.147663591,12.3310893 C-0.0492211971,15.7984074 -0.0492211971,26.1914104 0.147663591,29.6596237 C0.306961284,33.0240009 1.07525942,36.0039162 3.53945154,38.4597281 C6.00409111,40.9150924 8.97391916,41.6835686 12.3375168,41.8523022 C15.8044789,42.0492326 26.1955211,42.0492326 29.6624832,41.8523022 C33.0260808,41.6929676 36.0057531,40.9244914 38.4605485,38.4597281 C40.9153438,36.0039162 41.6836419,33.0240009 41.8523364,29.6596237 C42.0492212,26.1914104 42.0492212,15.8078064 41.8523364,12.3400407 M34.7219748,9.7911344 C34.7219748,11.1875501 33.5979417,12.3024448 32.2107988,12.3024448 C30.8147067,12.3024448 29.7000703,11.1781512 29.7000703,9.7911344 C29.7000703,8.40367007 30.8241035,7.27937639 32.2107988,7.27937639 C33.5979417,7.27937639 34.7219748,8.40367007 34.7219748,9.7911344 M21.0044747,28.0004849 C17.1535872,28.0004849 14.0056679,24.8612349 14.0056679,21.0000559 C14.0056679,17.1384294 17.1446379,13.9987319 21.0044747,13.9987319 C24.8652064,13.9987319 28.0041763,17.1384294 28.0041763,21.0000559 C28.0041763,24.8612349 24.8558096,28.0004849 21.0044747,28.0004849 M21.0044747,10.2315424 C15.0455776,10.2315424 10.2389039,15.0393301 10.2389039,21.0000559 C10.2389039,26.9603342 15.0455776,31.7681219 21.0044747,31.7681219 C26.9638192,31.7681219 31.7704929,26.9603342 31.7704929,21.0000559 C31.7704929,15.0393301 26.9638192,10.2315424 21.0044747,10.2315424" id="Fill-1" fill="#43569F" mask="url(#mask-2)"></path>
            </g>
        </g>
    </g>
</svg>